<svg width="59" height="59" viewBox="0 0 59 59" fill="none" xmlns="http://www.w3.org/2000/svg">
<g clip-path="url(#clip0_2_13)">
<path d="M9.83333 44.25H19.6667C21.0187 44.25 22.125 43.1437 22.125 41.7917C22.125 40.4396 21.0187 39.3333 19.6667 39.3333H9.83333C8.48125 39.3333 7.375 40.4396 7.375 41.7917C7.375 43.1437 8.48125 44.25 9.83333 44.25ZM7.375 17.2083C7.375 18.5604 8.48125 19.6667 9.83333 19.6667H49.1667C50.5187 19.6667 51.625 18.5604 51.625 17.2083C51.625 15.8562 50.5187 14.75 49.1667 14.75H9.83333C8.48125 14.75 7.375 15.8562 7.375 17.2083ZM9.83333 31.9583H34.4167C35.7687 31.9583 36.875 30.8521 36.875 29.5C36.875 28.1479 35.7687 27.0417 34.4167 27.0417H9.83333C8.48125 27.0417 7.375 28.1479 7.375 29.5C7.375 30.8521 8.48125 31.9583 9.83333 31.9583Z" fill="white"/>
</g>
<defs>
<clipPath id="clip0_2_13">
<rect width="59" height="59" fill="white"/>
</clipPath>
</defs>
</svg>
